<svg id="Layer_1" data-name="Layer 1" xmlns="http://www.w3.org/2000/svg" viewBox="0 0 2000 2000"><defs><style>.cls-1{fill:#212223;}.cls-2{fill:#343538;}.cls-3{fill:#3173db;}</style></defs><title>SchedgeLogo</title><rect class="cls-1" x="0.5" y="0.5" width="1999" height="1999" rx="119.5"/><path d="M1880,1a119,119,0,0,1,119,119V1880a119,119,0,0,1-119,119H120A119,119,0,0,1,1,1880V120A119,119,0,0,1,120,1H1880m0-1H120A120,120,0,0,0,0,120V1880a120,120,0,0,0,120,120H1880a120,120,0,0,0,120-120V120A120,120,0,0,0,1880,0Z"/><path class="cls-2" d="M1855,55a90.1,90.1,0,0,1,90,90V1855a90.1,90.1,0,0,1-90,90H145a90.1,90.1,0,0,1-90-90V145a90.1,90.1,0,0,1,90-90H1855m0-30H145A120,120,0,0,0,25,145V1855a120,120,0,0,0,120,120H1855a120,120,0,0,0,120-120V145A120,120,0,0,0,1855,25Z"/><path class="cls-3" d="M1062.4,286.52l342,342.05L1219.35,813.66l-342-342L1062.4,286.52m0-28.28L849,471.61l370.33,370.33,213.37-213.37L1062.4,258.24Z"/><polygon class="cls-3" points="849.46 472.05 774.74 471.55 988 259.17 1062.83 258.67 849.46 472.05"/><polygon class="cls-3" points="774.74 471.55 849.51 471.5 1218.96 841.45 1149.05 845.87 774.74 471.55"/><path class="cls-3" d="M788.07,561.73l683.17,683.17L1286.15,1430,603,746.82,788.07,561.73m0-28.28L574.7,746.82l711.45,711.46,213.38-213.38L788.07,533.45Z"/><polygon class="cls-3" points="574.74 746.76 499.53 746.76 713.67 533.5 788.5 533 574.74 746.76"/><polygon class="cls-3" points="499.53 746.76 574.74 746.76 1286.21 1458.23 1209.23 1458.23 499.53 746.76"/><polygon class="cls-3" points="642.38 1367.58 567.66 1367.09 780.93 1154.7 855.76 1154.21 642.38 1367.58"/><polygon class="cls-3" points="567.66 1367.09 642.88 1367.09 1012.78 1736.98 941.98 1742.29 567.66 1367.09"/><path class="cls-3" d="M855.33,1182.06l342,342-185.09,185.09-342-342,185.09-185.09m0-28.29L642,1367.15l370.33,370.33,213.37-213.38L855.33,1153.77Z"/></svg>